<svg width="40" height="40" viewBox="0 0 40 40" fill="none" xmlns="http://www.w3.org/2000/svg">
<path d="M0 8C0 3.58172 3.58172 0 8 0H32C36.4183 0 40 3.58172 40 8V32C40 36.4183 36.4183 40 32 40H8C3.58172 40 0 36.4183 0 32V8Z" fill="#000EEF"/>
<path d="M14.2666 25.6L25.8999 20.6133C26.4399 20.38 26.4399 19.62 25.8999 19.3867L14.2666 14.4C13.8266 14.2067 13.3399 14.5333 13.3399 15.0067L13.3333 18.08C13.3333 18.4133 13.5799 18.7 13.9133 18.74L23.3333 20L13.9133 21.2533C13.5799 21.3 13.3333 21.5867 13.3333 21.92L13.3399 24.9933C13.3399 25.4667 13.8266 25.7933 14.2666 25.6Z" fill="white"/>
</svg>
