<svg width="40" height="40" viewBox="0 0 40 40" fill="none" xmlns="http://www.w3.org/2000/svg">
<path d="M0 8C0 3.58172 3.58172 0 8 0H32C36.4183 0 40 3.58172 40 8V32C40 36.4183 36.4183 40 32 40H8C3.58172 40 0 36.4183 0 32V8Z" fill="#000EEF"/>
<path d="M19.8666 19.2667C18.3533 18.8733 17.8666 18.4667 17.8666 17.8333C17.8666 17.1067 18.5399 16.6 19.6666 16.6C20.6133 16.6 21.0866 16.96 21.2599 17.5333C21.3399 17.8 21.5599 18 21.8399 18H22.0399C22.4799 18 22.7933 17.5667 22.6399 17.1533C22.3599 16.3667 21.7066 15.7133 20.6666 15.46V15C20.6666 14.4467 20.2199 14 19.6666 14C19.1133 14 18.6666 14.4467 18.6666 15V15.44C17.3733 15.72 16.3333 16.56 16.3333 17.8467C16.3333 19.3867 17.6066 20.1533 19.4666 20.6C21.1333 21 21.4666 21.5867 21.4666 22.2067C21.4666 22.6667 21.1399 23.4 19.6666 23.4C18.5666 23.4 17.9999 23.0067 17.7799 22.4467C17.6799 22.1867 17.4533 22 17.1799 22H16.9933C16.5466 22 16.2333 22.4533 16.3999 22.8667C16.7799 23.7933 17.6666 24.34 18.6666 24.5533V25C18.6666 25.5533 19.1133 26 19.6666 26C20.2199 26 20.6666 25.5533 20.6666 25V24.5667C21.9666 24.32 22.9999 23.5667 22.9999 22.2C22.9999 20.3067 21.3799 19.66 19.8666 19.2667Z" fill="white"/>
</svg>
