<svg width="40" height="40" viewBox="0 0 40 40" fill="none" xmlns="http://www.w3.org/2000/svg">
<rect width="40" height="40" rx="8" fill="#000EEF"/>
<path d="M19.9998 20C21.4732 20 22.6665 18.8067 22.6665 17.3333C22.6665 15.86 21.4732 14.6667 19.9998 14.6667C18.5265 14.6667 17.3332 15.86 17.3332 17.3333C17.3332 18.8067 18.5265 20 19.9998 20ZM19.9998 21.3333C18.2198 21.3333 14.6665 22.2267 14.6665 24V24.6667C14.6665 25.0333 14.9665 25.3333 15.3332 25.3333H24.6665C25.0332 25.3333 25.3332 25.0333 25.3332 24.6667V24C25.3332 22.2267 21.7798 21.3333 19.9998 21.3333Z" fill="white"/>
</svg>
