<svg width="22" height="16" viewBox="0 0 22 16" fill="none" xmlns="http://www.w3.org/2000/svg">
<rect x="15.1958" y="7.97217" width="4.76706" height="4.76706" rx="1.0552" transform="rotate(45 15.1958 7.97217)" fill="white"/>
<path d="M6.53058 3.38716C6.91753 2.34146 8.39655 2.34146 8.7835 3.38716L9.53347 5.41394C9.65513 5.7427 9.91434 6.00191 10.2431 6.12357L12.2699 6.87354C13.3156 7.26049 13.3156 8.73951 12.2699 9.12646L10.2431 9.87643C9.91434 9.99808 9.65513 10.2573 9.53347 10.5861L8.7835 12.6128C8.39655 13.6585 6.91753 13.6585 6.53058 12.6128L5.78061 10.5861C5.65896 10.2573 5.39974 9.99808 5.07098 9.87643L3.04421 9.12646C1.9985 8.73951 1.9985 7.26049 3.04421 6.87354L5.07098 6.12357C5.39974 6.00191 5.65896 5.7427 5.78061 5.41394L6.53058 3.38716Z" fill="white"/>
</svg>
